<svg xmlns="http://www.w3.org/2000/svg" width="512" height="512" viewBox="0 0 512 512">
  <defs>
    <linearGradient id="g" x1="0" x2="1" y1="0" y2="1">
      <stop offset="0%" stop-color="#6a11cb"/>
      <stop offset="100%" stop-color="#2575fc"/>
    </linearGradient>
  </defs>
  <rect width="512" height="512" rx="112" fill="url(#g)"/>
  <g fill="#ffffff">
    <path d="M164 322c0-30 17-49 52-59l94-26c13-4 20-11 20-22 0-9-4-16-12-22s-19-9-34-9c-17 0-30 4-40 12s-16 18-18 31h-64c3-32 16-57 39-74s53-26 90-26c38 0 68 8 90 24s33 37 33 63c0 26-8 45-24 57s-35 21-58 27l-64 17c-10 3-18 7-23 12s-8 11-8 18c0 10 4 18 13 24s21 9 36 9c18 0 32-4 42-12s16-18 18-31h64c-3 30-16 54-39 72s-53 27-90 27c-39 0-69-8-91-24s-33-37-33-63z"/>
  </g>
</svg>

